<?xml version="1.0" standalone="no"?>
<!DOCTYPE svg PUBLIC "-//W3C//DTD SVG 20010904//EN"
 "http://www.w3.org/TR/2001/REC-SVG-20010904/DTD/svg10.dtd">
<svg version="1.0" xmlns="http://www.w3.org/2000/svg"
 width="300.000000pt" height="300.000000pt" viewBox="0 0 300.000000 300.000000"
 preserveAspectRatio="xMidYMid meet">
<metadata>
Created by potrace 1.11, written by Peter Selinger 2001-2013
</metadata>
<g transform="translate(0.000000,300.000000) scale(0.100000,-0.100000)"
fill="#000000" stroke="none">
<path d="M0 1500 l0 -1500 975 0 975 0 0 1500 0 1500 -975 0 -975 0 0 -1500z
m890 -245 l0 -65 -262 -2 -263 -3 -3 -62 -3 -63 201 0 200 0 0 -70 0 -70 65 0
65 0 0 -130 0 -130 -65 0 -65 0 0 -65 0 -65 -330 0 -330 0 0 130 0 130 265 0
266 0 -3 68 -3 67 -262 3 -263 2 0 130 0 130 65 0 65 0 0 65 0 65 330 0 330 0
0 -65z m860 0 l0 -65 70 0 70 0 0 -130 0 -130 -70 0 -70 0 0 -132 0 -133 67 0
68 0 3 -67 3 -68 -136 0 -135 0 0 130 0 130 -130 0 -130 0 0 -130 0 -130 -135
0 -135 0 0 395 0 395 330 0 330 0 0 -65z"/>
<path d="M1360 1055 l0 -135 130 0 130 0 0 135 0 135 -130 0 -130 0 0 -135z"/>
<path d="M2110 1500 l0 -1500 134 0 135 0 -1 1500 0 1500 -134 0 -134 0 0
-1500z"/>
</g>
</svg>
